<mxfile host="app.diagrams.net" modified="2023-06-15T11:20:11.754Z" agent="Mozilla/5.0 (Windows NT 10.0; Win64; x64) AppleWebKit/537.36 (KHTML, like Gecko) Chrome/114.0.0.0 Safari/537.36 Edg/114.0.1823.43" etag="pcK2jf46fX_lNEeY4RkS" version="21.4.0" type="github">
  <diagram name="第 1 页" id="SMMPnXZLgG_OkL0JwIQL">
    <mxGraphModel dx="1139" dy="616" grid="1" gridSize="10" guides="1" tooltips="1" connect="1" arrows="1" fold="1" page="1" pageScale="1" pageWidth="827" pageHeight="1169" math="0" shadow="0">
      <root>
        <mxCell id="0" />
        <mxCell id="1" parent="0" />
        <mxCell id="BheCtsbC5Pr1tIgJ_9VC-1" value="" style="rounded=1;whiteSpace=wrap;html=1;direction=south;" parent="1" vertex="1">
          <mxGeometry x="200" y="60" width="60" height="120" as="geometry" />
        </mxCell>
        <mxCell id="BheCtsbC5Pr1tIgJ_9VC-2" value="" style="rounded=1;whiteSpace=wrap;html=1;direction=south;" parent="1" vertex="1">
          <mxGeometry x="320" y="60" width="60" height="120" as="geometry" />
        </mxCell>
        <mxCell id="BheCtsbC5Pr1tIgJ_9VC-3" value="操作系统底层函数库" style="shape=dataStorage;whiteSpace=wrap;html=1;fixedSize=1;direction=south;" parent="1" vertex="1">
          <mxGeometry x="90" y="60" width="61" height="120" as="geometry" />
        </mxCell>
        <mxCell id="BheCtsbC5Pr1tIgJ_9VC-4" value="" style="shape=curlyBracket;whiteSpace=wrap;html=1;rounded=1;flipH=1;labelPosition=right;verticalLabelPosition=middle;align=left;verticalAlign=middle;direction=north;" parent="1" vertex="1">
          <mxGeometry x="230" y="190" width="120" height="20" as="geometry" />
        </mxCell>
        <mxCell id="BheCtsbC5Pr1tIgJ_9VC-18" value="编译后的目标模块&lt;br&gt;（一般由代码编写者编译，操作系统不管）" style="text;align=center;fontStyle=1;verticalAlign=middle;spacingLeft=3;spacingRight=3;strokeColor=none;rotatable=0;points=[[0,0.5],[1,0.5]];portConstraint=eastwest;html=1;" parent="1" vertex="1">
          <mxGeometry x="250" y="220" width="80" height="26" as="geometry" />
        </mxCell>
        <mxCell id="BheCtsbC5Pr1tIgJ_9VC-19" value="" style="shape=curlyBracket;whiteSpace=wrap;html=1;rounded=1;flipH=1;labelPosition=right;verticalLabelPosition=middle;align=left;verticalAlign=middle;" parent="1" vertex="1">
          <mxGeometry x="430" y="100" width="20" height="120" as="geometry" />
        </mxCell>
        <mxCell id="BheCtsbC5Pr1tIgJ_9VC-20" value="1. 编译：把各式各样开发语言编写的代码&lt;br&gt;编译成为二进制指令" style="text;align=center;fontStyle=1;verticalAlign=middle;spacingLeft=3;spacingRight=3;strokeColor=none;rotatable=0;points=[[0,0.5],[1,0.5]];portConstraint=eastwest;html=1;" parent="1" vertex="1">
          <mxGeometry x="530" y="154" width="80" height="26" as="geometry" />
        </mxCell>
        <mxCell id="BheCtsbC5Pr1tIgJ_9VC-32" style="edgeStyle=orthogonalEdgeStyle;rounded=0;orthogonalLoop=1;jettySize=auto;html=1;exitX=0.5;exitY=1;exitDx=0;exitDy=0;entryX=0.5;entryY=0;entryDx=0;entryDy=0;" parent="1" source="BheCtsbC5Pr1tIgJ_9VC-22" target="BheCtsbC5Pr1tIgJ_9VC-31" edge="1">
          <mxGeometry relative="1" as="geometry" />
        </mxCell>
        <mxCell id="BheCtsbC5Pr1tIgJ_9VC-22" value="链接程序" style="rounded=1;whiteSpace=wrap;html=1;" parent="1" vertex="1">
          <mxGeometry x="190" y="390" width="120" height="60" as="geometry" />
        </mxCell>
        <mxCell id="BheCtsbC5Pr1tIgJ_9VC-30" style="edgeStyle=orthogonalEdgeStyle;rounded=0;orthogonalLoop=1;jettySize=auto;html=1;exitX=0.1;exitY=0.5;exitDx=0;exitDy=0;exitPerimeter=0;entryX=0.5;entryY=0;entryDx=0;entryDy=0;" parent="1" source="BheCtsbC5Pr1tIgJ_9VC-27" target="BheCtsbC5Pr1tIgJ_9VC-22" edge="1">
          <mxGeometry relative="1" as="geometry" />
        </mxCell>
        <mxCell id="BheCtsbC5Pr1tIgJ_9VC-27" value="" style="shape=curlyBracket;whiteSpace=wrap;html=1;rounded=1;flipH=1;labelPosition=right;verticalLabelPosition=middle;align=left;verticalAlign=middle;direction=north;" parent="1" vertex="1">
          <mxGeometry x="120" y="330" width="260" height="20" as="geometry" />
        </mxCell>
        <mxCell id="BheCtsbC5Pr1tIgJ_9VC-28" value="" style="endArrow=open;endFill=1;endSize=12;html=1;rounded=0;" parent="1" edge="1">
          <mxGeometry width="160" relative="1" as="geometry">
            <mxPoint x="120" y="260" as="sourcePoint" />
            <mxPoint x="120" y="310" as="targetPoint" />
          </mxGeometry>
        </mxCell>
        <mxCell id="BheCtsbC5Pr1tIgJ_9VC-29" value="" style="endArrow=open;endFill=1;endSize=12;html=1;rounded=0;" parent="1" edge="1">
          <mxGeometry width="160" relative="1" as="geometry">
            <mxPoint x="289.5" y="260" as="sourcePoint" />
            <mxPoint x="289.5" y="310" as="targetPoint" />
          </mxGeometry>
        </mxCell>
        <mxCell id="BheCtsbC5Pr1tIgJ_9VC-36" style="edgeStyle=orthogonalEdgeStyle;rounded=0;orthogonalLoop=1;jettySize=auto;html=1;exitX=0.5;exitY=1;exitDx=0;exitDy=0;entryX=0.5;entryY=0;entryDx=0;entryDy=0;" parent="1" source="BheCtsbC5Pr1tIgJ_9VC-31" target="BheCtsbC5Pr1tIgJ_9VC-35" edge="1">
          <mxGeometry relative="1" as="geometry" />
        </mxCell>
        <mxCell id="BheCtsbC5Pr1tIgJ_9VC-31" value="装入模块" style="rounded=1;whiteSpace=wrap;html=1;" parent="1" vertex="1">
          <mxGeometry x="190" y="500" width="120" height="60" as="geometry" />
        </mxCell>
        <mxCell id="BheCtsbC5Pr1tIgJ_9VC-33" value="" style="shape=curlyBracket;whiteSpace=wrap;html=1;rounded=1;flipH=1;labelPosition=right;verticalLabelPosition=middle;align=left;verticalAlign=middle;" parent="1" vertex="1">
          <mxGeometry x="414" y="410" width="20" height="120" as="geometry" />
        </mxCell>
        <mxCell id="BheCtsbC5Pr1tIgJ_9VC-34" value="2.链接" style="text;align=center;fontStyle=1;verticalAlign=middle;spacingLeft=3;spacingRight=3;strokeColor=none;rotatable=0;points=[[0,0.5],[1,0.5]];portConstraint=eastwest;html=1;" parent="1" vertex="1">
          <mxGeometry x="434" y="457" width="80" height="26" as="geometry" />
        </mxCell>
        <mxCell id="BheCtsbC5Pr1tIgJ_9VC-38" style="edgeStyle=orthogonalEdgeStyle;rounded=0;orthogonalLoop=1;jettySize=auto;html=1;exitX=0.5;exitY=1;exitDx=0;exitDy=0;" parent="1" source="BheCtsbC5Pr1tIgJ_9VC-35" target="BheCtsbC5Pr1tIgJ_9VC-37" edge="1">
          <mxGeometry relative="1" as="geometry" />
        </mxCell>
        <mxCell id="BheCtsbC5Pr1tIgJ_9VC-35" value="装入程序" style="rounded=1;whiteSpace=wrap;html=1;" parent="1" vertex="1">
          <mxGeometry x="190" y="610" width="120" height="60" as="geometry" />
        </mxCell>
        <mxCell id="BheCtsbC5Pr1tIgJ_9VC-37" value="内存" style="rounded=1;whiteSpace=wrap;html=1;" parent="1" vertex="1">
          <mxGeometry x="190" y="720" width="120" height="60" as="geometry" />
        </mxCell>
        <mxCell id="BheCtsbC5Pr1tIgJ_9VC-39" value="" style="shape=curlyBracket;whiteSpace=wrap;html=1;rounded=1;flipH=1;labelPosition=right;verticalLabelPosition=middle;align=left;verticalAlign=middle;" parent="1" vertex="1">
          <mxGeometry x="414" y="640" width="20" height="120" as="geometry" />
        </mxCell>
        <mxCell id="BheCtsbC5Pr1tIgJ_9VC-40" value="3.装入" style="text;align=center;fontStyle=1;verticalAlign=middle;spacingLeft=3;spacingRight=3;strokeColor=none;rotatable=0;points=[[0,0.5],[1,0.5]];portConstraint=eastwest;html=1;" parent="1" vertex="1">
          <mxGeometry x="434" y="687" width="80" height="26" as="geometry" />
        </mxCell>
        <mxCell id="BheCtsbC5Pr1tIgJ_9VC-41" value="" style="shape=curlyBracket;whiteSpace=wrap;html=1;rounded=1;labelPosition=left;verticalLabelPosition=middle;align=right;verticalAlign=middle;" parent="1" vertex="1">
          <mxGeometry x="520" y="410" width="20" height="120" as="geometry" />
        </mxCell>
        <mxCell id="BheCtsbC5Pr1tIgJ_9VC-42" value="静态链接：一次性把编译后的目标模块经过链接程序加载需要的&lt;br&gt;操作系统底层函数库变为装入模块，在执行装入程序" style="text;align=center;fontStyle=1;verticalAlign=middle;spacingLeft=3;spacingRight=3;strokeColor=none;rotatable=0;points=[[0,0.5],[1,0.5]];portConstraint=eastwest;html=1;" parent="1" vertex="1">
          <mxGeometry x="690" y="407" width="80" height="26" as="geometry" />
        </mxCell>
        <mxCell id="BheCtsbC5Pr1tIgJ_9VC-43" value="装入时动态链接：链接程序和装入程序并行，整个程序都加载到内存中之后，才会去执行程序" style="text;align=center;fontStyle=1;verticalAlign=middle;spacingLeft=3;spacingRight=3;strokeColor=none;rotatable=0;points=[[0,0.5],[1,0.5]];portConstraint=eastwest;html=1;" parent="1" vertex="1">
          <mxGeometry x="770" y="457" width="80" height="26" as="geometry" />
        </mxCell>
        <mxCell id="BheCtsbC5Pr1tIgJ_9VC-44" value="运行时动态链接：加载必要的模块到内存中，程序就开始执行，&lt;br&gt;当发现需要某个数据时，产生缺页中断，把对应的数据在加载进来" style="text;align=center;fontStyle=1;verticalAlign=middle;spacingLeft=3;spacingRight=3;strokeColor=none;rotatable=0;points=[[0,0.5],[1,0.5]];portConstraint=eastwest;html=1;" parent="1" vertex="1">
          <mxGeometry x="690" y="517" width="80" height="26" as="geometry" />
        </mxCell>
        <mxCell id="P-U8-8gLLuIv1oe31DTD-7" value="" style="shape=curlyBracket;whiteSpace=wrap;html=1;rounded=1;labelPosition=left;verticalLabelPosition=middle;align=right;verticalAlign=middle;" parent="1" vertex="1">
          <mxGeometry x="520" y="640" width="20" height="120" as="geometry" />
        </mxCell>
        <mxCell id="P-U8-8gLLuIv1oe31DTD-9" value="绝对装入：在程序中定义把程序放到内存中的哪个位置" style="text;align=center;fontStyle=1;verticalAlign=middle;spacingLeft=3;spacingRight=3;strokeColor=none;rotatable=0;points=[[0,0.5],[1,0.5]];portConstraint=eastwest;html=1;" parent="1" vertex="1">
          <mxGeometry x="660" y="630" width="80" height="26" as="geometry" />
        </mxCell>
        <mxCell id="P-U8-8gLLuIv1oe31DTD-10" value="可重定位装入：把程序的逻辑地址转化为物理地址，整个装入之前不会运行程序&amp;nbsp;&amp;nbsp;" style="text;align=center;fontStyle=1;verticalAlign=middle;spacingLeft=3;spacingRight=3;strokeColor=none;rotatable=0;points=[[0,0.5],[1,0.5]];portConstraint=eastwest;html=1;" parent="1" vertex="1">
          <mxGeometry x="720" y="687" width="80" height="26" as="geometry" />
        </mxCell>
        <mxCell id="P-U8-8gLLuIv1oe31DTD-11" value="动态运行时装入：只加载必要的程序，遇到缺少的在重新加载" style="text;align=center;fontStyle=1;verticalAlign=middle;spacingLeft=3;spacingRight=3;strokeColor=none;rotatable=0;points=[[0,0.5],[1,0.5]];portConstraint=eastwest;html=1;" parent="1" vertex="1">
          <mxGeometry x="680" y="737" width="80" height="26" as="geometry" />
        </mxCell>
      </root>
    </mxGraphModel>
  </diagram>
</mxfile>
